<?xml version="1.0" encoding="UTF-8" standalone="no"?>
<svg width="33px" height="33px" viewBox="0 0 33 33" version="1.1" xmlns="http://www.w3.org/2000/svg" xmlns:xlink="http://www.w3.org/1999/xlink">
  <g stroke="none" stroke-width="1" fill="none" fill-rule="evenodd">
    <path d="M16.5,33 C25.6126984,33 33,25.6126984 33,16.5 C33,7.38730163 25.6126984,0 16.5,0 C7.38730163,0 0,7.38730163 0,16.5 C0,25.6126984 7.38730163,33 16.5,33 Z M16.324,17.156 C16.324,14.286 14.56,12.34 11.2,12.34 L7.882,12.34 L7.882,22 L11.27,22 C14.532,22 16.324,20.026 16.324,17.156 Z M13.916,17.17 C13.916,19.242 12.852,20.138 11.144,20.138 L10.276,20.138 L10.276,14.202 L11.144,14.202 C12.782,14.202 13.916,15.14 13.916,17.17 Z M25.858,22 L25.858,12.34 L23.632,12.34 L23.632,17.744 L20.076,12.34 L17.752,12.34 L17.752,22 L19.978,22 L19.978,16.218 L23.786,22 L25.858,22 Z" fill="#000000"></path>
  </g>
</svg>
